STARTFONT 2.1
FONT -thai-dbthaitext-medium-i-normal--17-120-100-100-p-50-tis620-0
SIZE 12 100 100
FONTBOUNDINGBOX 22 19 -6 -7
STARTPROPERTIES 25
FOUNDRY "thai"
FAMILY_NAME "dbthaitext"
WEIGHT_NAME "medium"
SLANT "i"
SETWIDTH_NAME "normal"
ADD_STYLE_NAME ""
PIXEL_SIZE 17
POINT_SIZE 120
RESOLUTION_X 100
RESOLUTION_Y 100
SPACING "p"
AVERAGE_WIDTH 50
CHARSET_REGISTRY "tis620"
CHARSET_ENCODING "0"
FONT "-thai-dbthaitext-medium-i-normal--17-120-100-100-p-50-tis620-0"
COPYRIGHT "Typeface (c) The Monotype Corporation plc. Data (c) The Monotype Corporation plc/Type Solutions Inc. 1990-1992. All Rights Reserved"
RAW_PIXELSIZE 1000
RAW_POINTSIZE 723
RAW_ASCENT 736
RAW_DESCENT 415
RAW_AVERAGE_WIDTH 2994
FACE_NAME "DBThaiTextItalic5"
DEFAULT_CHAR 0
FONT_ASCENT 12
FONT_DESCENT 7
ENDPROPERTIES
CHARS 190
STARTCHAR space
ENCODING 32
SWIDTH 240 0
DWIDTH 4 0
BBX 0 0 0 0
BITMAP
ENDCHAR
STARTCHAR exclam
ENCODING 33
SWIDTH 180 0
DWIDTH 3 0
BBX 3 7 0 0
BITMAP
20
20
40
40
40
00
80
ENDCHAR
STARTCHAR quotedbl
ENCODING 34
SWIDTH 240 0
DWIDTH 4 0
BBX 3 2 0 5
BITMAP
a0
a0
ENDCHAR
STARTCHAR numbersign
ENCODING 35
SWIDTH 360 0
DWIDTH 6 0
BBX 6 7 0 0
BITMAP
14
14
7c
28
f8
a0
a0
ENDCHAR
STARTCHAR dollar
ENCODING 36
SWIDTH 360 0
DWIDTH 6 0
BBX 6 9 0 -1
BITMAP
10
38
64
60
30
28
b0
e0
40
ENDCHAR
STARTCHAR percent
ENCODING 37
SWIDTH 540 0
DWIDTH 9 0
BBX 7 7 1 0
BITMAP
64
a4
e8
50
2e
52
8c
ENDCHAR
STARTCHAR ampersand
ENCODING 38
SWIDTH 420 0
DWIDTH 7 0
BBX 5 7 0 0
BITMAP
18
28
38
20
f8
90
f0
ENDCHAR
STARTCHAR apostrophe
ENCODING 39
SWIDTH 120 0
DWIDTH 2 0
BBX 1 2 1 5
BITMAP
80
80
ENDCHAR
STARTCHAR parenleft
ENCODING 40
SWIDTH 180 0
DWIDTH 3 0
BBX 4 9 0 -2
BITMAP
10
20
40
40
80
80
80
80
80
ENDCHAR
STARTCHAR parenright
ENCODING 41
SWIDTH 180 0
DWIDTH 3 0
BBX 4 9 -1 -2
BITMAP
10
10
10
10
10
20
20
40
40
ENDCHAR
STARTCHAR asterisk
ENCODING 42
SWIDTH 240 0
DWIDTH 4 0
BBX 4 2 0 5
BITMAP
f0
40
ENDCHAR
STARTCHAR plus
ENCODING 43
SWIDTH 360 0
DWIDTH 6 0
BBX 5 5 0 0
BITMAP
10
20
f8
20
20
ENDCHAR
STARTCHAR comma
ENCODING 44
SWIDTH 180 0
DWIDTH 3 0
BBX 2 2 0 -1
BITMAP
c0
40
ENDCHAR
STARTCHAR minus
ENCODING 45
SWIDTH 180 0
DWIDTH 3 0
BBX 3 1 0 2
BITMAP
e0
ENDCHAR
STARTCHAR period
ENCODING 46
SWIDTH 180 0
DWIDTH 3 0
BBX 1 1 1 0
BITMAP
80
ENDCHAR
STARTCHAR slash
ENCODING 47
SWIDTH 180 0
DWIDTH 3 0
BBX 5 7 -1 0
BITMAP
08
10
10
20
40
40
80
ENDCHAR
STARTCHAR 0
ENCODING 48
SWIDTH 300 0
DWIDTH 5 0
BBX 5 6 0 0
BITMAP
38
48
48
90
90
e0
ENDCHAR
STARTCHAR 1
ENCODING 49
SWIDTH 300 0
DWIDTH 5 0
BBX 3 6 1 0
BITMAP
20
c0
40
40
80
80
ENDCHAR
STARTCHAR 2
ENCODING 50
SWIDTH 300 0
DWIDTH 5 0
BBX 5 6 0 0
BITMAP
18
28
10
60
40
f0
ENDCHAR
STARTCHAR 3
ENCODING 51
SWIDTH 300 0
DWIDTH 5 0
BBX 5 6 0 0
BITMAP
38
48
10
10
90
e0
ENDCHAR
STARTCHAR 4
ENCODING 52
SWIDTH 300 0
DWIDTH 5 0
BBX 5 6 0 0
BITMAP
08
18
68
50
f8
20
ENDCHAR
STARTCHAR 5
ENCODING 53
SWIDTH 300 0
DWIDTH 5 0
BBX 5 6 0 0
BITMAP
38
40
70
10
10
e0
ENDCHAR
STARTCHAR 6
ENCODING 54
SWIDTH 300 0
DWIDTH 5 0
BBX 5 6 0 0
BITMAP
38
48
70
90
90
e0
ENDCHAR
STARTCHAR 7
ENCODING 55
SWIDTH 300 0
DWIDTH 5 0
BBX 5 6 0 0
BITMAP
78
10
20
20
40
80
ENDCHAR
STARTCHAR 8
ENCODING 56
SWIDTH 300 0
DWIDTH 5 0
BBX 5 6 0 0
BITMAP
38
48
70
50
90
e0
ENDCHAR
STARTCHAR 9
ENCODING 57
SWIDTH 300 0
DWIDTH 5 0
BBX 5 6 0 0
BITMAP
38
48
48
78
10
e0
ENDCHAR
STARTCHAR colon
ENCODING 58
SWIDTH 180 0
DWIDTH 3 0
BBX 3 5 0 0
BITMAP
20
00
00
80
80
ENDCHAR
STARTCHAR semicolon
ENCODING 59
SWIDTH 180 0
DWIDTH 3 0
BBX 3 6 0 -1
BITMAP
20
00
00
00
c0
40
ENDCHAR
STARTCHAR less
ENCODING 60
SWIDTH 360 0
DWIDTH 6 0
BBX 5 5 1 0
BITMAP
08
70
80
60
10
ENDCHAR
STARTCHAR equal
ENCODING 61
SWIDTH 360 0
DWIDTH 6 0
BBX 5 3 0 1
BITMAP
78
00
f0
ENDCHAR
STARTCHAR greater
ENCODING 62
SWIDTH 360 0
DWIDTH 6 0
BBX 5 4 0 1
BITMAP
40
30
18
20
ENDCHAR
STARTCHAR question
ENCODING 63
SWIDTH 360 0
DWIDTH 6 0
BBX 5 7 1 0
BITMAP
78
c8
10
20
40
00
80
ENDCHAR
STARTCHAR at
ENCODING 64
SWIDTH 600 0
DWIDTH 10 0
BBX 10 9 0 -2
BITMAP
0f80
3040
4f40
5240
b280
bf00
8000
6400
3c00
ENDCHAR
STARTCHAR A
ENCODING 65
SWIDTH 420 0
DWIDTH 7 0
BBX 6 7 -1 0
BITMAP
0c
14
14
24
7c
44
84
ENDCHAR
STARTCHAR B
ENCODING 66
SWIDTH 420 0
DWIDTH 7 0
BBX 7 7 0 0
BITMAP
3e
22
44
7c
44
84
f8
ENDCHAR
STARTCHAR C
ENCODING 67
SWIDTH 420 0
DWIDTH 7 0
BBX 7 7 0 0
BITMAP
3e
42
40
80
84
88
70
ENDCHAR
STARTCHAR D
ENCODING 68
SWIDTH 420 0
DWIDTH 7 0
BBX 7 7 0 0
BITMAP
3c
22
22
42
44
8c
f0
ENDCHAR
STARTCHAR E
ENCODING 69
SWIDTH 420 0
DWIDTH 7 0
BBX 7 7 0 0
BITMAP
3e
20
20
7c
40
80
f8
ENDCHAR
STARTCHAR F
ENCODING 70
SWIDTH 360 0
DWIDTH 6 0
BBX 7 7 0 0
BITMAP
3e
20
20
78
40
40
80
ENDCHAR
STARTCHAR G
ENCODING 71
SWIDTH 480 0
DWIDTH 8 0
BBX 7 7 0 0
BITMAP
1c
62
40
8e
84
8c
74
ENDCHAR
STARTCHAR H
ENCODING 72
SWIDTH 420 0
DWIDTH 7 0
BBX 8 7 0 0
BITMAP
21
21
62
7e
42
84
84
ENDCHAR
STARTCHAR I
ENCODING 73
SWIDTH 180 0
DWIDTH 3 0
BBX 3 7 0 0
BITMAP
20
20
40
40
40
80
80
ENDCHAR
STARTCHAR J
ENCODING 74
SWIDTH 300 0
DWIDTH 5 0
BBX 5 7 0 0
BITMAP
08
08
08
10
90
a0
c0
ENDCHAR
STARTCHAR K
ENCODING 75
SWIDTH 420 0
DWIDTH 7 0
BBX 8 7 0 0
BITMAP
23
2c
50
70
48
88
88
ENDCHAR
STARTCHAR L
ENCODING 76
SWIDTH 360 0
DWIDTH 6 0
BBX 5 7 0 0
BITMAP
20
20
60
40
40
80
f8
ENDCHAR
STARTCHAR M
ENCODING 77
SWIDTH 480 0
DWIDTH 8 0
BBX 9 7 0 0
BITMAP
3180
3380
5300
5500
5700
9a00
9200
ENDCHAR
STARTCHAR N
ENCODING 78
SWIDTH 420 0
DWIDTH 7 0
BBX 8 7 0 0
BITMAP
31
31
52
4a
4a
8c
8c
ENDCHAR
STARTCHAR O
ENCODING 79
SWIDTH 480 0
DWIDTH 8 0
BBX 7 7 0 0
BITMAP
1c
62
42
82
82
8c
70
ENDCHAR
STARTCHAR P
ENCODING 80
SWIDTH 420 0
DWIDTH 7 0
BBX 7 7 0 0
BITMAP
3e
22
26
7c
40
40
80
ENDCHAR
STARTCHAR Q
ENCODING 81
SWIDTH 480 0
DWIDTH 8 0
BBX 7 7 0 0
BITMAP
1c
62
42
82
82
8c
78
ENDCHAR
STARTCHAR R
ENCODING 82
SWIDTH 420 0
DWIDTH 7 0
BBX 7 7 0 0
BITMAP
3e
22
26
78
84
84
84
ENDCHAR
STARTCHAR S
ENCODING 83
SWIDTH 420 0
DWIDTH 7 0
BBX 7 7 0 0
BITMAP
1e
22
60
3c
04
8c
f8
ENDCHAR
STARTCHAR T
ENCODING 84
SWIDTH 360 0
DWIDTH 6 0
BBX 5 7 2 0
BITMAP
f8
20
20
20
40
40
80
ENDCHAR
STARTCHAR U
ENCODING 85
SWIDTH 420 0
DWIDTH 7 0
BBX 7 7 0 0
BITMAP
42
42
44
44
84
88
70
ENDCHAR
STARTCHAR V
ENCODING 86
SWIDTH 420 0
DWIDTH 7 0
BBX 5 7 2 0
BITMAP
88
98
90
a0
a0
c0
c0
ENDCHAR
STARTCHAR W
ENCODING 87
SWIDTH 540 0
DWIDTH 9 0
BBX 10 7 1 0
BITMAP
cc40
cc80
d480
a500
a600
ce00
8400
ENDCHAR
STARTCHAR X
ENCODING 88
SWIDTH 420 0
DWIDTH 7 0
BBX 8 7 -1 0
BITMAP
12
14
1c
18
28
48
c4
ENDCHAR
STARTCHAR Y
ENCODING 89
SWIDTH 420 0
DWIDTH 7 0
BBX 6 7 2 0
BITMAP
8c
88
50
60
40
40
40
ENDCHAR
STARTCHAR Z
ENCODING 90
SWIDTH 360 0
DWIDTH 6 0
BBX 8 7 -1 0
BITMAP
1f
06
08
10
20
40
fc
ENDCHAR
STARTCHAR bracketleft
ENCODING 91
SWIDTH 180 0
DWIDTH 3 0
BBX 5 9 -1 -2
BITMAP
18
10
20
20
20
40
40
80
c0
ENDCHAR
STARTCHAR backslash
ENCODING 92
SWIDTH 180 0
DWIDTH 3 0
BBX 1 7 1 0
BITMAP
80
80
80
80
80
80
80
ENDCHAR
STARTCHAR bracketright
ENCODING 93
SWIDTH 180 0
DWIDTH 3 0
BBX 5 9 -1 -2
BITMAP
18
08
10
10
10
20
20
40
c0
ENDCHAR
STARTCHAR asciicircum
ENCODING 94
SWIDTH 300 0
DWIDTH 5 0
BBX 4 4 0 3
BITMAP
10
30
50
90
ENDCHAR
STARTCHAR underscore
ENCODING 95
SWIDTH 360 0
DWIDTH 6 0
BBX 5 1 0 -2
BITMAP
f8
ENDCHAR
STARTCHAR grave
ENCODING 96
SWIDTH 180 0
DWIDTH 3 0
BBX 3 3 0 1
BITMAP
e0
e0
40
ENDCHAR
STARTCHAR a
ENCODING 97
SWIDTH 360 0
DWIDTH 6 0
BBX 5 5 0 0
BITMAP
38
08
70
90
f0
ENDCHAR
STARTCHAR b
ENCODING 98
SWIDTH 360 0
DWIDTH 6 0
BBX 6 7 0 0
BITMAP
20
20
78
44
48
98
e0
ENDCHAR
STARTCHAR c
ENCODING 99
SWIDTH 300 0
DWIDTH 5 0
BBX 5 5 0 0
BITMAP
78
48
80
90
e0
ENDCHAR
STARTCHAR d
ENCODING 100
SWIDTH 360 0
DWIDTH 6 0
BBX 6 7 0 0
BITMAP
04
04
34
c8
88
90
f0
ENDCHAR
STARTCHAR e
ENCODING 101
SWIDTH 360 0
DWIDTH 6 0
BBX 5 5 0 0
BITMAP
78
48
f8
90
e0
ENDCHAR
STARTCHAR f
ENCODING 102
SWIDTH 180 0
DWIDTH 3 0
BBX 5 7 0 0
BITMAP
38
20
60
40
40
40
80
ENDCHAR
STARTCHAR g
ENCODING 103
SWIDTH 360 0
DWIDTH 6 0
BBX 6 7 0 -2
BITMAP
1c
64
44
48
78
10
e0
ENDCHAR
STARTCHAR h
ENCODING 104
SWIDTH 360 0
DWIDTH 6 0
BBX 5 7 0 0
BITMAP
20
20
78
48
48
48
90
ENDCHAR
STARTCHAR i
ENCODING 105
SWIDTH 120 0
DWIDTH 2 0
BBX 3 7 0 0
BITMAP
20
00
40
40
40
80
80
ENDCHAR
STARTCHAR j
ENCODING 106
SWIDTH 120 0
DWIDTH 2 0
BBX 5 9 -2 -2
BITMAP
08
00
10
10
10
20
20
40
c0
ENDCHAR
STARTCHAR k
ENCODING 107
SWIDTH 300 0
DWIDTH 5 0
BBX 5 7 0 0
BITMAP
20
20
50
60
a0
a0
a0
ENDCHAR
STARTCHAR l
ENCODING 108
SWIDTH 120 0
DWIDTH 2 0
BBX 3 7 0 0
BITMAP
20
20
40
40
40
80
80
ENDCHAR
STARTCHAR m
ENCODING 109
SWIDTH 480 0
DWIDTH 8 0
BBX 8 5 0 0
BITMAP
3f
49
49
52
92
ENDCHAR
STARTCHAR n
ENCODING 110
SWIDTH 360 0
DWIDTH 6 0
BBX 5 5 0 0
BITMAP
38
48
48
88
90
ENDCHAR
STARTCHAR o
ENCODING 111
SWIDTH 360 0
DWIDTH 6 0
BBX 5 5 0 0
BITMAP
78
48
88
98
e0
ENDCHAR
STARTCHAR p
ENCODING 112
SWIDTH 360 0
DWIDTH 6 0
BBX 6 7 0 -2
BITMAP
3c
24
44
4c
b0
80
80
ENDCHAR
STARTCHAR q
ENCODING 113
SWIDTH 360 0
DWIDTH 6 0
BBX 5 7 1 -2
BITMAP
78
c8
88
b0
d0
10
10
ENDCHAR
STARTCHAR r
ENCODING 114
SWIDTH 180 0
DWIDTH 3 0
BBX 6 5 -1 0
BITMAP
3c
60
40
40
80
ENDCHAR
STARTCHAR s
ENCODING 115
SWIDTH 300 0
DWIDTH 5 0
BBX 5 5 0 0
BITMAP
38
68
70
90
f0
ENDCHAR
STARTCHAR t
ENCODING 116
SWIDTH 180 0
DWIDTH 3 0
BBX 3 7 0 0
BITMAP
20
20
60
40
40
80
80
ENDCHAR
STARTCHAR u
ENCODING 117
SWIDTH 360 0
DWIDTH 6 0
BBX 5 5 0 0
BITMAP
48
48
88
b0
c0
ENDCHAR
STARTCHAR v
ENCODING 118
SWIDTH 300 0
DWIDTH 5 0
BBX 5 5 1 0
BITMAP
88
90
a0
c0
80
ENDCHAR
STARTCHAR w
ENCODING 119
SWIDTH 420 0
DWIDTH 7 0
BBX 7 5 1 0
BITMAP
92
b4
b4
d8
90
ENDCHAR
STARTCHAR x
ENCODING 120
SWIDTH 300 0
DWIDTH 5 0
BBX 5 5 0 0
BITMAP
28
30
20
50
90
ENDCHAR
STARTCHAR y
ENCODING 121
SWIDTH 300 0
DWIDTH 5 0
BBX 7 7 -1 -2
BITMAP
22
24
28
38
30
20
c0
ENDCHAR
STARTCHAR z
ENCODING 122
SWIDTH 300 0
DWIDTH 5 0
BBX 5 5 0 0
BITMAP
38
10
20
40
f0
ENDCHAR
STARTCHAR braceleft
ENCODING 123
SWIDTH 180 0
DWIDTH 3 0
BBX 6 9 0 -2
BITMAP
1c
30
20
60
c0
40
40
c0
c0
ENDCHAR
STARTCHAR bar
ENCODING 124
SWIDTH 180 0
DWIDTH 3 0
BBX 4 9 -1 -2
BITMAP
10
10
20
20
20
40
40
40
80
ENDCHAR
STARTCHAR braceright
ENCODING 125
SWIDTH 180 0
DWIDTH 3 0
BBX 5 9 -2 -2
BITMAP
18
18
10
10
08
30
20
60
c0
ENDCHAR
STARTCHAR asciitilde
ENCODING 126
SWIDTH 360 0
DWIDTH 6 0
BBX 5 1 0 3
BITMAP
f8
ENDCHAR
STARTCHAR exclamdown
ENCODING 161
SWIDTH 360 0
DWIDTH 6 0
BBX 6 5 0 0
BITMAP
7c
48
48
88
88
ENDCHAR
STARTCHAR cent
ENCODING 162
SWIDTH 360 0
DWIDTH 6 0
BBX 5 5 1 0
BITMAP
e8
a8
28
50
e0
ENDCHAR
STARTCHAR sterling
ENCODING 163
SWIDTH 420 0
DWIDTH 7 0
BBX 6 5 0 0
BITMAP
74
e4
14
1c
30
ENDCHAR
STARTCHAR currency
ENCODING 164
SWIDTH 360 0
DWIDTH 6 0
BBX 5 6 1 0
BITMAP
38
c8
f8
e8
90
90
ENDCHAR
STARTCHAR yen
ENCODING 165
SWIDTH 360 0
DWIDTH 6 0
BBX 5 5 1 0
BITMAP
f8
f8
e8
90
90
ENDCHAR
STARTCHAR brokenbar
ENCODING 166
SWIDTH 480 0
DWIDTH 8 0
BBX 7 5 1 0
BITMAP
f2
d2
24
7c
44
ENDCHAR
STARTCHAR section
ENCODING 167
SWIDTH 300 0
DWIDTH 5 0
BBX 4 5 1 0
BITMAP
30
90
90
a0
40
ENDCHAR
STARTCHAR diaeresis
ENCODING 168
SWIDTH 360 0
DWIDTH 6 0
BBX 5 5 1 0
BITMAP
f8
78
70
30
10
ENDCHAR
STARTCHAR copyright
ENCODING 169
SWIDTH 420 0
DWIDTH 7 0
BBX 5 5 1 0
BITMAP
78
c8
c8
f8
48
ENDCHAR
STARTCHAR ordfeminine
ENCODING 170
SWIDTH 360 0
DWIDTH 6 0
BBX 5 6 1 0
BITMAP
78
d0
d0
50
d0
e0
ENDCHAR
STARTCHAR guillemotleft
ENCODING 171
SWIDTH 420 0
DWIDTH 7 0
BBX 7 6 0 0
BITMAP
76
d8
e4
28
28
70
ENDCHAR
STARTCHAR notsign
ENCODING 172
SWIDTH 480 0
DWIDTH 8 0
BBX 8 5 0 0
BITMAP
79
49
4a
da
f4
ENDCHAR
STARTCHAR hyphen
ENCODING 173
SWIDTH 480 0
DWIDTH 8 0
BBX 8 8 1 -3
BITMAP
79
49
4a
d2
fc
00
3c
30
ENDCHAR
STARTCHAR registered
ENCODING 174
SWIDTH 420 0
DWIDTH 7 0
BBX 7 8 0 -3
BITMAP
1e
12
22
64
c4
64
b8
c8
ENDCHAR
STARTCHAR macron
ENCODING 175
SWIDTH 420 0
DWIDTH 7 0
BBX 7 8 0 -3
BITMAP
1e
12
22
64
c4
24
f8
e8
ENDCHAR
STARTCHAR degree
ENCODING 176
SWIDTH 300 0
DWIDTH 5 0
BBX 8 8 -1 -3
BITMAP
1f
04
34
1c
08
00
70
f8
ENDCHAR
STARTCHAR plusminus
ENCODING 177
SWIDTH 480 0
DWIDTH 8 0
BBX 7 5 0 0
BITMAP
fe
da
22
24
24
ENDCHAR
STARTCHAR twosuperior
ENCODING 178
SWIDTH 480 0
DWIDTH 8 0
BBX 8 5 0 0
BITMAP
f9
b9
aa
da
94
ENDCHAR
STARTCHAR threesuperior
ENCODING 179
SWIDTH 480 0
DWIDTH 8 0
BBX 8 5 0 0
BITMAP
79
4b
4a
ff
d6
ENDCHAR
STARTCHAR acute
ENCODING 180
SWIDTH 360 0
DWIDTH 6 0
BBX 5 6 1 0
BITMAP
38
c8
a8
a8
c8
90
ENDCHAR
STARTCHAR mu
ENCODING 181
SWIDTH 360 0
DWIDTH 6 0
BBX 5 5 1 0
BITMAP
f8
a8
a8
d0
90
ENDCHAR
STARTCHAR paragraph
ENCODING 182
SWIDTH 360 0
DWIDTH 6 0
BBX 5 5 0 0
BITMAP
78
48
48
c8
d0
ENDCHAR
STARTCHAR periodcentered
ENCODING 183
SWIDTH 360 0
DWIDTH 6 0
BBX 5 5 1 0
BITMAP
f8
68
88
88
90
ENDCHAR
STARTCHAR cedilla
ENCODING 184
SWIDTH 300 0
DWIDTH 5 0
BBX 5 5 0 0
BITMAP
70
48
50
50
e0
ENDCHAR
STARTCHAR onesuperior
ENCODING 185
SWIDTH 420 0
DWIDTH 7 0
BBX 5 5 1 0
BITMAP
c8
48
88
f8
98
ENDCHAR
STARTCHAR masculine
ENCODING 186
SWIDTH 420 0
DWIDTH 7 0
BBX 6 5 0 0
BITMAP
44
44
44
48
f0
ENDCHAR
STARTCHAR guillemotright
ENCODING 187
SWIDTH 420 0
DWIDTH 7 0
BBX 7 8 0 0
BITMAP
02
02
22
64
44
44
48
f8
ENDCHAR
STARTCHAR onequarter
ENCODING 188
SWIDTH 360 0
DWIDTH 6 0
BBX 6 5 0 0
BITMAP
74
44
64
d8
88
ENDCHAR
STARTCHAR onehalf
ENCODING 189
SWIDTH 360 0
DWIDTH 6 0
BBX 7 8 0 0
BITMAP
02
02
22
74
44
74
c8
88
ENDCHAR
STARTCHAR threequarters
ENCODING 190
SWIDTH 420 0
DWIDTH 7 0
BBX 7 5 1 0
BITMAP
ea
5a
6c
4c
88
ENDCHAR
STARTCHAR questiondown
ENCODING 191
SWIDTH 420 0
DWIDTH 7 0
BBX 7 8 1 0
BITMAP
02
02
52
d4
6c
6c
88
88
ENDCHAR
STARTCHAR Agrave
ENCODING 192
SWIDTH 420 0
DWIDTH 7 0
BBX 7 5 -1 0
BITMAP
1e
32
24
e4
c4
ENDCHAR
STARTCHAR Aacute
ENCODING 193
SWIDTH 360 0
DWIDTH 6 0
BBX 7 5 0 0
BITMAP
72
22
24
f4
cc
ENDCHAR
STARTCHAR Acircumflex
ENCODING 194
SWIDTH 360 0
DWIDTH 6 0
BBX 5 5 0 0
BITMAP
68
48
c8
98
e0
ENDCHAR
STARTCHAR Atilde
ENCODING 195
SWIDTH 300 0
DWIDTH 5 0
BBX 6 5 1 0
BITMAP
fc
10
20
60
60
ENDCHAR
STARTCHAR Adiaeresis
ENCODING 196
SWIDTH 360 0
DWIDTH 6 0
BBX 5 8 1 -3
BITMAP
78
48
48
c8
d0
10
10
20
ENDCHAR
STARTCHAR Aring
ENCODING 197
SWIDTH 360 0
DWIDTH 6 0
BBX 5 5 0 0
BITMAP
78
68
58
d0
d0
ENDCHAR
STARTCHAR AE
ENCODING 198
SWIDTH 420 0
DWIDTH 7 0
BBX 7 8 0 -3
BITMAP
1e
32
24
e4
c4
08
08
08
ENDCHAR
STARTCHAR Ccedilla
ENCODING 199
SWIDTH 360 0
DWIDTH 6 0
BBX 4 5 1 0
BITMAP
f0
10
10
20
60
ENDCHAR
STARTCHAR Egrave
ENCODING 200
SWIDTH 360 0
DWIDTH 6 0
BBX 6 6 1 0
BITMAP
2c
90
f0
d0
90
90
ENDCHAR
STARTCHAR Eacute
ENCODING 201
SWIDTH 420 0
DWIDTH 7 0
BBX 7 5 0 0
BITMAP
64
5e
5c
48
f8
ENDCHAR
STARTCHAR Ecircumflex
ENCODING 202
SWIDTH 360 0
DWIDTH 6 0
BBX 5 6 1 0
BITMAP
08
78
a8
b8
90
d0
ENDCHAR
STARTCHAR Ediaeresis
ENCODING 203
SWIDTH 420 0
DWIDTH 7 0
BBX 6 5 1 0
BITMAP
dc
a8
a8
88
90
ENDCHAR
STARTCHAR Igrave
ENCODING 204
SWIDTH 420 0
DWIDTH 7 0
BBX 8 7 1 0
BITMAP
02
46
b4
6c
6c
48
88
ENDCHAR
STARTCHAR Iacute
ENCODING 205
SWIDTH 360 0
DWIDTH 6 0
BBX 5 5 0 0
BITMAP
78
68
48
88
f0
ENDCHAR
STARTCHAR Icircumflex
ENCODING 206
SWIDTH 360 0
DWIDTH 6 0
BBX 7 6 0 0
BITMAP
04
7a
48
48
c8
f0
ENDCHAR
STARTCHAR Idiaeresis
ENCODING 207
SWIDTH 360 0
DWIDTH 6 0
BBX 5 5 1 0
BITMAP
e8
d0
f0
10
60
ENDCHAR
STARTCHAR ETH
ENCODING 208
SWIDTH 300 0
DWIDTH 5 0
BBX 6 5 0 0
BITMAP
7c
00
00
d0
e0
ENDCHAR
STARTCHAR Ntilde
ENCODING 209
SWIDTH 0 0
DWIDTH 0 0
BBX 5 2 -3 7
BITMAP
c8
f0
ENDCHAR
STARTCHAR Ograve
ENCODING 210
SWIDTH 300 0
DWIDTH 5 0
BBX 4 5 1 0
BITMAP
f0
10
20
20
20
ENDCHAR
STARTCHAR Oacute
ENCODING 211
SWIDTH 300 0
DWIDTH 5 0
BBX 5 9 -1 0
BITMAP
40
c0
00
00
78
08
08
10
10
ENDCHAR
STARTCHAR Ocircumflex
ENCODING 212
SWIDTH 0 0
DWIDTH 0 0
BBX 5 2 -6 7
BITMAP
78
f8
ENDCHAR
STARTCHAR Otilde
ENCODING 213
SWIDTH 60 0
DWIDTH 1 0
BBX 5 3 -5 7
BITMAP
08
78
f8
ENDCHAR
STARTCHAR Odiaeresis
ENCODING 214
SWIDTH 0 0
DWIDTH 0 0
BBX 5 3 -6 7
BITMAP
08
78
f8
ENDCHAR
STARTCHAR multiply
ENCODING 215
SWIDTH 60 0
DWIDTH 1 0
BBX 5 3 -5 7
BITMAP
18
78
f8
ENDCHAR
STARTCHAR Ooblique
ENCODING 216
SWIDTH 0 0
DWIDTH 0 0
BBX 3 3 -3 -4
BITMAP
e0
c0
40
ENDCHAR
STARTCHAR Ugrave
ENCODING 217
SWIDTH 0 0
DWIDTH 0 0
BBX 4 3 -4 -4
BITMAP
f0
d0
60
ENDCHAR
STARTCHAR Uacute
ENCODING 218
SWIDTH 0 0
DWIDTH 0 0
BBX 1 1 -2 -2
BITMAP
80
ENDCHAR
STARTCHAR Ucircumflex
ENCODING 219
SWIDTH 0 0
DWIDTH 0 0
BBX 1 1 -2 -4
BITMAP
80
ENDCHAR
STARTCHAR Udiaeresis
ENCODING 220
SWIDTH 0 0
DWIDTH 0 0
BBX 1 1 0 0
BITMAP
00
ENDCHAR
STARTCHAR Yacute
ENCODING 221
SWIDTH 0 0
DWIDTH 0 0
BBX 1 1 0 0
BITMAP
00
ENDCHAR
STARTCHAR THORN
ENCODING 222
SWIDTH 0 0
DWIDTH 0 0
BBX 1 1 0 0
BITMAP
00
ENDCHAR
STARTCHAR ssharp
ENCODING 223
SWIDTH 0 0
DWIDTH 0 0
BBX 1 1 0 0
BITMAP
00
ENDCHAR
STARTCHAR agrave
ENCODING 224
SWIDTH 180 0
DWIDTH 3 0
BBX 2 5 0 0
BITMAP
40
40
40
c0
c0
ENDCHAR
STARTCHAR aacute
ENCODING 225
SWIDTH 360 0
DWIDTH 6 0
BBX 5 5 0 0
BITMAP
48
48
50
d8
d0
ENDCHAR
STARTCHAR acircumflex
ENCODING 226
SWIDTH 240 0
DWIDTH 4 0
BBX 5 10 0 0
BITMAP
78
20
20
20
20
40
40
40
c0
c0
ENDCHAR
STARTCHAR atilde
ENCODING 227
SWIDTH 240 0
DWIDTH 4 0
BBX 4 10 0 0
BITMAP
70
50
20
20
20
40
40
40
c0
80
ENDCHAR
STARTCHAR adiaeresis
ENCODING 228
SWIDTH 240 0
DWIDTH 4 0
BBX 4 10 0 0
BITMAP
70
70
60
20
20
40
40
40
e0
c0
ENDCHAR
STARTCHAR aring
ENCODING 229
SWIDTH 300 0
DWIDTH 5 0
BBX 4 8 1 -3
BITMAP
f0
10
20
20
20
20
40
40
ENDCHAR
STARTCHAR ae
ENCODING 230
SWIDTH 420 0
DWIDTH 7 0
BBX 5 7 2 -2
BITMAP
f8
f8
50
10
30
20
60
ENDCHAR
STARTCHAR ccedilla
ENCODING 231
SWIDTH 0 0
DWIDTH 0 0
BBX 5 3 -5 7
BITMAP
78
80
f0
ENDCHAR
STARTCHAR egrave
ENCODING 232
SWIDTH 0 0
DWIDTH 0 0
BBX 1 2 -2 10
BITMAP
80
80
ENDCHAR
STARTCHAR eacute
ENCODING 233
SWIDTH 0 0
DWIDTH 0 0
BBX 4 2 -3 10
BITMAP
d0
60
ENDCHAR
STARTCHAR ecircumflex
ENCODING 234
SWIDTH 0 0
DWIDTH 0 0
BBX 5 2 -4 10
BITMAP
f8
f0
ENDCHAR
STARTCHAR ediaeresis
ENCODING 235
SWIDTH 0 0
DWIDTH 0 0
BBX 3 2 -3 10
BITMAP
e0
40
ENDCHAR
STARTCHAR igrave
ENCODING 236
SWIDTH 0 0
DWIDTH 0 0
BBX 4 3 -3 9
BITMAP
60
c0
c0
ENDCHAR
STARTCHAR iacute
ENCODING 237
SWIDTH 0 0
DWIDTH 0 0
BBX 2 2 -3 6
BITMAP
c0
80
ENDCHAR
STARTCHAR icircumflex
ENCODING 238
SWIDTH 0 0
DWIDTH 0 0
BBX 2 2 -3 8
BITMAP
c0
c0
ENDCHAR
STARTCHAR idiaeresis
ENCODING 239
SWIDTH 360 0
DWIDTH 6 0
BBX 6 5 0 0
BITMAP
fc
b4
e8
b8
60
ENDCHAR
STARTCHAR eth
ENCODING 240
SWIDTH 360 0
DWIDTH 6 0
BBX 5 4 0 0
BITMAP
78
88
88
f0
ENDCHAR
STARTCHAR ntilde
ENCODING 241
SWIDTH 360 0
DWIDTH 6 0
BBX 5 4 1 0
BITMAP
78
a8
e8
d0
ENDCHAR
STARTCHAR ograve
ENCODING 242
SWIDTH 420 0
DWIDTH 7 0
BBX 6 6 1 0
BITMAP
80
80
b8
e8
c8
f0
ENDCHAR
STARTCHAR oacute
ENCODING 243
SWIDTH 420 0
DWIDTH 7 0
BBX 6 4 1 0
BITMAP
68
94
d8
98
ENDCHAR
STARTCHAR ocircumflex
ENCODING 244
SWIDTH 420 0
DWIDTH 7 0
BBX 8 6 0 0
BITMAP
01
02
7c
b0
b0
f8
ENDCHAR
STARTCHAR otilde
ENCODING 245
SWIDTH 420 0
DWIDTH 7 0
BBX 8 6 0 0
BITMAP
09
1e
78
b0
b0
f8
ENDCHAR
STARTCHAR odiaeresis
ENCODING 246
SWIDTH 300 0
DWIDTH 5 0
BBX 5 6 0 0
BITMAP
40
40
78
08
f8
e0
ENDCHAR
STARTCHAR division
ENCODING 247
SWIDTH 420 0
DWIDTH 7 0
BBX 8 6 0 0
BITMAP
01
02
7a
9a
cc
d8
ENDCHAR
STARTCHAR oslash
ENCODING 248
SWIDTH 420 0
DWIDTH 7 0
BBX 7 6 0 0
BITMAP
02
06
78
88
fc
98
ENDCHAR
STARTCHAR ugrave
ENCODING 249
SWIDTH 360 0
DWIDTH 6 0
BBX 7 6 0 0
BITMAP
02
02
7c
98
e8
e8
ENDCHAR
STARTCHAR uacute
ENCODING 250
SWIDTH 1020 0
DWIDTH 17 0
BBX 16 1 0 2
BITMAP
fffc
ENDCHAR
STARTCHAR ucircumflex
ENCODING 251
SWIDTH 480 0
DWIDTH 8 0
BBX 8 1 0 2
BITMAP
fe
ENDCHAR
STARTCHAR udiaeresis
ENCODING 252
SWIDTH 0 0
DWIDTH 0 0
BBX 2 4 -3 -7
BITMAP
40
c0
40
40
ENDCHAR
STARTCHAR yacute
ENCODING 253
SWIDTH 0 0
DWIDTH 0 0
BBX 4 4 -4 -7
BITMAP
50
d0
50
60
ENDCHAR
STARTCHAR thorn
ENCODING 254
SWIDTH 480 0
DWIDTH 8 0
BBX 7 7 0 0
BITMAP
1c
62
5a
9a
b2
ae
f0
ENDCHAR
STARTCHAR ydiaeresis
ENCODING 255
SWIDTH 0 0
DWIDTH 0 0
BBX 1 1 0 0
BITMAP
00
ENDCHAR
ENDFONT
